name rise30.8019peak61.5557fall86.2505.mot
datacolumns 19
datarows 23
range 4.89665400000000 4.93331500000000
endheader
time	ground_force1_vx	ground_force1_vy	ground_force1_vz	ground_force1_px	ground_force1_py	ground_force1_pz	ground_force2_vx	ground_force2_vy	ground_force2_vz	ground_force2_px	ground_force2_py	ground_force2_pz	ground_torque1_x	ground_torque1_y	ground_torque1_z	ground_torque2_x	ground_torque2_y	ground_torque2_z	
4.89665400000000	-7.25175700000000	40.13989700000000	-10.01023800000000	0.24412500000000	0.00000000000000	0.09596100000000	-56.58382800000000	743.53617399999996	-45.47591300000000	0.01958000000000	0.00000000000000	-0.06796200000000	0.00000000000000	-5.22158700000000	0.00000000000000	0.00000000000000	-8.01268100000000	0.00000000000000	
4.89832200000000	-7.84924100000000	46.92926300000000	-11.26752400000000	0.24992200000000	0.00000000000000	0.09658000000000	-57.61598600000000	740.93592899999999	-45.14450800000000	0.01866400000000	0.00000000000000	-0.06781800000000	0.00000000000000	-5.98047900000000	0.00000000000000	0.00000000000000	-8.08189100000000	0.00000000000000	
4.89998400000000	-8.28306100000000	53.77620500000000	-12.41501100000000	0.25523300000000	0.00000000000000	0.09714700000000	-58.66990400000000	738.23545799999999	-44.80161600000000	0.01774500000000	0.00000000000000	-0.06767300000000	0.00000000000000	-6.70162400000000	0.00000000000000	0.00000000000000	-8.15653200000000	0.00000000000000	
4.90165600000000	-8.53391600000000	60.59138100000000	-13.42668200000000	0.26012500000000	0.00000000000000	0.09767000000000	-59.74363200000000	735.43116299999997	-44.44673100000000	0.01682400000000	0.00000000000000	-0.06752600000000	0.00000000000000	-7.36925800000000	0.00000000000000	0.00000000000000	-8.23637100000000	0.00000000000000	
4.90331500000000	-8.59142000000000	67.30842800000001	-14.28539700000000	0.26465100000000	0.00000000000000	0.09815400000000	-60.83510300000000	732.51940000000002	-44.07935600000000	0.01590200000000	0.00000000000000	-0.06737700000000	0.00000000000000	-7.97200900000000	0.00000000000000	0.00000000000000	-8.32115900000000	0.00000000000000	
4.90498700000000	-8.45384700000000	73.88590200000000	-14.98300200000000	0.26885400000000	0.00000000000000	0.09860600000000	-61.94213100000000	729.49649299999999	-43.69899400000000	0.01497800000000	0.00000000000000	-0.06722600000000	0.00000000000000	-8.50316300000000	0.00000000000000	0.00000000000000	-8.41062800000000	0.00000000000000	
4.90664900000000	-8.12720800000000	80.30684300000000	-15.51969300000000	0.27277300000000	0.00000000000000	0.09902800000000	-63.06242400000000	726.35874500000000	-43.30516200000000	0.01405500000000	0.00000000000000	-0.06707300000000	0.00000000000000	-8.96050400000000	0.00000000000000	0.00000000000000	-8.50449200000000	0.00000000000000	
4.90832200000000	-7.62385400000000	86.57638799999999	-15.90279500000000	0.27643600000000	0.00000000000000	0.09942600000000	-64.19358099999999	723.10245499999996	-42.89738800000000	0.01313300000000	0.00000000000000	-0.06691800000000	0.00000000000000	-9.34580700000000	0.00000000000000	0.00000000000000	-8.60244900000000	0.00000000000000	
4.91000100000000	-6.96079400000000	92.71798000000000	-16.14517400000000	0.27987000000000	0.00000000000000	0.09980100000000	-65.33310100000000	719.72392700000000	-42.47521800000000	0.01221200000000	0.00000000000000	-0.06676100000000	0.00000000000000	-9.66408200000000	0.00000000000000	0.00000000000000	-8.70418000000000	0.00000000000000	
4.91165400000000	-6.15792000000000	98.76871300000001	-16.26346400000000	0.28309600000000	0.00000000000000	0.10015600000000	-66.47839000000000	716.21948899999995	-42.03821600000000	0.01129300000000	0.00000000000000	-0.06660300000000	0.00000000000000	-9.92269300000000	0.00000000000000	0.00000000000000	-8.80935100000000	0.00000000000000	
4.91331700000000	-5.23630400000000	104.77436800000000	-16.27629700000000	0.28613300000000	0.00000000000000	0.10049400000000	-67.62676300000000	712.58550300000002	-41.58597400000000	0.01037700000000	0.00000000000000	-0.06644200000000	0.00000000000000	-10.13041400000000	0.00000000000000	0.00000000000000	-8.91761400000000	0.00000000000000	
4.91498300000000	-4.21668400000000	110.78458600000000	-16.20267500000000	0.28899700000000	0.00000000000000	0.10081600000000	-68.77545600000001	708.81838400000004	-41.11810900000000	0.00946500000000	0.00000000000000	-0.06627900000000	0.00000000000000	-10.29654800000000	0.00000000000000	0.00000000000000	-9.02860300000000	0.00000000000000	
4.91665200000000	-3.11823600000000	116.84853699999999	-16.06059000000000	0.29170000000000	0.00000000000000	0.10112400000000	-69.92162999999999	704.91461100000004	-40.63427000000000	0.00855700000000	0.00000000000000	-0.06611400000000	0.00000000000000	-10.43014200000000	0.00000000000000	0.00000000000000	-9.14194500000000	0.00000000000000	
4.91831800000000	-1.95767300000000	123.01135400000000	-15.86595700000000	0.29425500000000	0.00000000000000	0.10141800000000	-71.06237900000001	700.87074500000006	-40.13414100000000	0.00765400000000	0.00000000000000	-0.06594700000000	0.00000000000000	-10.53936000000000	0.00000000000000	0.00000000000000	-9.25725000000000	0.00000000000000	
4.91998200000000	-0.74868900000000	129.31145599999999	-15.63189100000000	0.29667200000000	0.00000000000000	0.10170200000000	-72.19473700000000	696.68344600000000	-39.61744300000000	0.00675600000000	0.00000000000000	-0.06577700000000	0.00000000000000	-10.63103300000000	0.00000000000000	0.00000000000000	-9.37412000000000	0.00000000000000	
4.92165300000000	0.49828000000000	135.77882000000000	-15.36832200000000	0.29896000000000	0.00000000000000	0.10197400000000	-73.31568700000000	692.34948699999995	-39.08394000000000	0.00586500000000	0.00000000000000	-0.06560600000000	0.00000000000000	-10.71038100000000	0.00000000000000	0.00000000000000	-9.49214400000000	0.00000000000000	
4.92331800000000	1.77600100000000	142.43415300000001	-15.08191300000000	0.30112500000000	0.00000000000000	0.10223700000000	-74.42217300000000	687.86577100000000	-38.53343800000000	0.00498000000000	0.00000000000000	-0.06543300000000	0.00000000000000	-10.78092100000000	0.00000000000000	0.00000000000000	-9.61090300000000	0.00000000000000	
4.92498400000000	3.08016900000000	149.28887599999999	-14.77623800000000	0.30317500000000	0.00000000000000	0.10249000000000	-75.51110100000000	683.22935099999995	-37.96579200000000	0.00410200000000	0.00000000000000	-0.06525700000000	0.00000000000000	-10.84450700000000	0.00000000000000	0.00000000000000	-9.72997200000000	0.00000000000000	
4.92665200000000	4.40896500000000	156.34575699999999	-14.45215700000000	0.30511600000000	0.00000000000000	0.10273600000000	-76.57935600000000	678.43744600000002	-37.38090400000000	0.00323100000000	0.00000000000000	-0.06508000000000	0.00000000000000	-10.90150100000000	0.00000000000000	0.00000000000000	-9.84891700000000	0.00000000000000	
4.92831500000000	5.76250500000000	163.60004000000001	-14.10831900000000	0.30695200000000	0.00000000000000	0.10297300000000	-77.62380500000000	673.48745799999995	-36.77873000000000	0.00236800000000	0.00000000000000	-0.06490000000000	0.00000000000000	-10.95101500000000	0.00000000000000	0.00000000000000	-9.96729900000000	0.00000000000000	
4.92998200000000	7.14225100000000	171.04088500000000	-13.74174900000000	0.30868900000000	0.00000000000000	0.10320300000000	-78.64131200000000	668.37699099999998	-36.15927800000000	0.00151400000000	0.00000000000000	-0.06471800000000	0.00000000000000	-10.99121800000000	0.00000000000000	0.00000000000000	-10.08467500000000	0.00000000000000	
4.93166000000000	8.55043500000000	178.65295800000001	-13.34843000000000	0.31032900000000	0.00000000000000	0.10342700000000	-79.62874300000000	663.10387100000003	-35.52261200000000	0.00066800000000	0.00000000000000	-0.06453400000000	0.00000000000000	-11.01964500000000	0.00000000000000	0.00000000000000	-10.20059800000000	0.00000000000000	
4.93331500000000	9.98952800000000	186.41802899999999	-12.92387300000000	0.31187800000000	0.00000000000000	0.10364400000000	-80.58297600000000	657.66615999999999	-34.86885300000000	-0.00016900000000	0.00000000000000	-0.06434800000000	0.00000000000000	-11.03351200000000	0.00000000000000	0.00000000000000	-10.31462100000000	0.00000000000000	
